<svg xmlns="http://www.w3.org/2000/svg" xmlns:xlink="http://www.w3.org/1999/xlink" viewBox="0,0,256,256" width="256px" height="256px"><g fill="#ffffff" fill-rule="nonzero" stroke="none" stroke-width="1" stroke-linecap="butt" stroke-linejoin="miter" stroke-miterlimit="10" stroke-dasharray="" stroke-dashoffset="0" font-family="none" font-weight="none" font-size="none" text-anchor="none" style="mix-blend-mode: normal"><g transform="scale(16,16)"><path d="M10.44727,0.26563c-0.13004,0.00413 -0.25335,0.05878 -0.34375,0.15234l-4.44727,4.44922l-2.56055,2.55859c-0.05137,0.05015 -0.09134,0.11076 -0.11719,0.17773c-1.20865,1.37039 -1.19195,3.4604 0.11719,4.76953l2.56055,2.56055c1.36138,1.36138 3.58588,1.36138 4.94727,0l2.25,-2.25c0.12632,-0.12664 0.17547,-0.31106 0.12895,-0.48378c-0.04653,-0.17271 -0.18167,-0.30748 -0.35451,-0.35354c-0.17284,-0.04605 -0.35712,0.00361 -0.48342,0.13028l-2.25,2.25c-0.97862,0.97862 -2.55263,0.97862 -3.53125,0l-2.56055,-2.56055c-0.97862,-0.97862 -0.97862,-2.55459 0,-3.5332l2.56055,-2.55859c0.97862,-0.97862 2.55263,-0.97862 3.53125,0l2.25,2.25c0.19524,0.19578 0.51223,0.19622 0.70801,0.00098c0.19578,-0.19524 0.19622,-0.51223 0.00098,-0.70801l-2.25,-2.25c-0.69283,-0.69282 -1.60914,-1.02407 -2.52148,-1.01172l2.73047,-2.73047c0.14893,-0.14387 0.19378,-0.36466 0.11278,-0.55523c-0.08099,-0.19058 -0.27107,-0.31152 -0.47802,-0.30414zM7.32813,9.40039c-0.18031,-0.00254 -0.34803,0.09219 -0.43893,0.24794c-0.0909,0.15575 -0.0909,0.34837 0,0.50412c0.0909,0.15575 0.25862,0.25049 0.43893,0.24794h6.90039c0.18031,0.00254 0.34803,-0.09219 0.43893,-0.24794c0.0909,-0.15575 0.0909,-0.34837 0,-0.50412c-0.0909,-0.15575 -0.25862,-0.25049 -0.43893,-0.24794z"></path></g></g></svg>